<?xml version="1.0"?>
<svg xmlns="http://www.w3.org/2000/svg" xmlns:xlink="http://www.w3.org/1999/xlink" version="1.1" id="Layer_1" x="0px" y="0px" viewBox="0 0 508 508" style="enable-background:new 0 0 508 508;" xml:space="preserve" width="512px" height="512px" class=""><g><circle style="fill:#1E495F" cx="254" cy="254" r="254" data-original="#90DFAA" class="" data-old_color="#90DFAA"/><rect x="118" y="95.2" style="fill:#E6E9EE;" width="199.2" height="265.2" data-original="#E6E9EE" class=""/><g>
	<rect x="150.4" y="129.6" style="fill:#1E495F" width="134.4" height="9.6" data-original="#ACB3BA" class="active-path" data-old_color="#ACB3BA"/>
	<rect x="150.4" y="166.8" style="fill:#1E495F" width="134.4" height="9.6" data-original="#ACB3BA" class="active-path" data-old_color="#ACB3BA"/>
	<rect x="150.4" y="204.4" style="fill:#1E495F" width="134.4" height="9.6" data-original="#ACB3BA" class="active-path" data-old_color="#ACB3BA"/>
	<rect x="150.4" y="241.6" style="fill:#1E495F" width="134.4" height="9.6" data-original="#ACB3BA" class="active-path" data-old_color="#ACB3BA"/>
	<rect x="150.4" y="278.8" style="fill:#1E495F" width="134.4" height="9.6" data-original="#ACB3BA" class="active-path" data-old_color="#ACB3BA"/>
	<rect x="150.4" y="316" style="fill:#1E495F" width="49.6" height="9.6" data-original="#ACB3BA" class="active-path" data-old_color="#ACB3BA"/>
</g><path style="fill:#FFFFFF;" d="M294.8,412.8C192.4,362.8,200,248,200,248c45.2,6,95.2-36.8,95.2-36.8S344.8,254,390,248  C390,248,397.6,362.8,294.8,412.8z" data-original="#FFFFFF"/><path style="fill:#EB5451" d="M294.8,395.2C230,359.6,218,293.6,216,264c32.8-2.4,63.6-21.6,79.2-32.8  c15.6,11.2,46.4,30.4,79.2,32.8C372.4,293.6,360.4,359.2,294.8,395.2z" data-original="#FF7058" class="" data-old_color="#FF7058"/></g> </svg>
