<?xml version="1.0"?>
<svg xmlns="http://www.w3.org/2000/svg" height="512px" viewBox="0 0 512 512" width="512px" class=""><g><path d="m512 256c0 1.730469-.019531 3.460938-.058594 5.179688-.082031 4.28125-.269531 8.53125-.5625 12.75-.199218 2.839843-.4375 5.671874-.730468 8.480468-.289063 2.808594-.617188 5.609375-1 8.390625-15.089844 111.039063-101.386719 199.460938-211.386719 217.71875-13.75 2.289063-27.871094 3.480469-42.261719 3.480469-2.378906 0-4.738281-.03125-7.101562-.101562-.367188-.007813-.738282-.019532-1.109376-.039063-4.828124-.140625-9.628906-.429687-14.390624-.847656-.179688-.023438-.367188-.03125-.546876-.050781-4.671874-.410157-9.3125-.960938-13.910156-1.632813-1.851562-.269531-3.691406-.558594-5.519531-.867187-1.121094-.191407-2.242187-.382813-3.351563-.589844-1.730468-.3125-3.449218-.640625-5.171874-.992188-116.898438-23.667968-204.898438-127-204.898438-250.878906 0-141.378906 114.621094-256 256-256 116.921875 0 215.53125 78.378906 246.160156 185.46875 2.480469 8.660156 4.511719 17.5 6.070313 26.511719 1.007812 5.859375 1.828125 11.789062 2.441406 17.78125.027344.339843.066406.667969.097656 1.007812.808594 8.289063 1.230469 16.71875 1.230469 25.230469zm0 0" fill="#ff475a" data-original="#FF475A" class="" data-old_color="#ff475a" style="fill:#1E495F"/><path d="m140.230469 288.960938 26.273437-26.273438 33.332032 33.332031-26.273438 26.273438zm0 0" fill="#f03049" data-original="#F03049" class="" data-old_color="#f03049" style="fill:#1E495F"/><path d="m511.941406 261.179688c-.082031 4.28125-.269531 8.53125-.5625 12.75-.199218 2.839843-.4375 5.671874-.730468 8.480468-.289063 2.808594-.617188 5.609375-1 8.390625-15.089844 111.039063-101.386719 199.460938-211.386719 217.71875-13.75 2.289063-27.871094 3.480469-42.261719 3.480469-2.378906 0-4.738281-.03125-7.101562-.101562-.367188-.007813-.738282-.019532-1.109376-.039063-4.828124-.140625-9.628906-.429687-14.390624-.847656l-106.699219-108.699219 173.5-333.351562 61.730469 61.730468 9.761718-9.761718zm0 0" fill="#f03049" data-original="#F03049" class="" data-old_color="#f03049" style="fill:#1E495F"/><path d="m255.699219 266.347656 75.226562 161.324219 6.847657-20.804687 6.429687-21.707032 20.761719 9.027344 20.335937 8.125-75.226562-161.324219zm0 0" fill="#00cd71" data-original="#00CD71" class="" data-old_color="#00cd71" style="fill:#EB5451"/><path d="m256.300781 266.347656-75.226562 161.324219-6.847657-20.804687-6.429687-21.707032-20.761719 9.027344-20.335937 8.125 75.226562-161.324219zm0 0" fill="#00ee84" data-original="#00EE84" class="" data-old_color="#00ee84" style="fill:#EB5451"/><path d="m399 205-31.695312 36.167969 4.386718 47.898437-46.925781 10.605469-24.566406 41.363281-44.199219-19.035156-44.199219 19.035156-24.566406-41.363281-46.925781-10.605469 4.386718-47.898437-31.695312-36.167969 31.695312-36.167969-4.386718-47.898437 46.925781-10.605469 24.566406-41.363281 44.199219 19.035156 44.199219-19.035156 24.566406 41.363281 46.925781 10.605469-4.386718 47.898437zm0 0" fill="#ffbf00" data-original="#FFBF00" class="" data-old_color="#ffbf00" style="fill:#FAD150"/><path d="m367.308594 241.171875 4.382812 47.898437-46.921875 10.601563-24.570312 41.367187-44.199219-19.039062v-234l44.199219-19.039062 24.570312 41.367187 46.921875 10.601563-4.382812 47.898437 31.691406 36.171875zm0 0" fill="#ebb200" data-original="#EBB200" class="" data-old_color="#ebb200" style="fill:#FAD150"/><path d="m335.5 205c0 43.90625-35.59375 79.5-79.5 79.5s-79.5-35.59375-79.5-79.5 35.59375-79.5 79.5-79.5 79.5 35.59375 79.5 79.5zm0 0" fill="#fff" data-original="#FFF" class=""/><path d="m335.5 205c0 43.910156-35.589844 79.5-79.5 79.5v-159c43.910156 0 79.5 35.589844 79.5 79.5zm0 0" fill="#ebf6fc" data-original="#EBF6FC" class="active-path" style="fill:#FFF" data-old_color="#ebf6fc"/><path d="m305.695312 185.078125-12.949218-15.238281-49.714844 42.144531-19.488281-22.929687-15.238281 12.953124 32.378906 38.097657.019531-.015625.058594.070312zm0 0" fill="#00ee84" data-original="#00EE84" class="" data-old_color="#00ee84" style="fill:#EB5451"/><path d="m305.699219 185.078125-49.699219 42.152344v-26.242188l36.738281-31.148437zm0 0" fill="#00cd71" data-original="#00CD71" class="" data-old_color="#00cd71" style="fill:#EB5451"/></g> </svg>
