<?xml version="1.0" encoding="utf-8"?>
<!DOCTYPE svg PUBLIC "-//W3C//DTD SVG 20010904//EN" "http://www.w3.org/TR/2001/REC-SVG-20010904/DTD/svg10.dtd">
<svg version="1.0" xmlns="http://www.w3.org/2000/svg" width="2364px" height="1069px" viewBox="0 0 2364 1069" preserveAspectRatio="xMidYMid meet">
 <g fill="#ffffff">
  <path d="M1001 974 l0 -21 15.5 0 15.5 0 0 4 0 4 -12.5 0 -12.5 0 0 5 0 5 7 0 7 0 0 4 0 4 -7 0 -7 0 0 8 0 8 -3 0 -3 0 0 -21z"/>
  <path d="M1043 974 l0 -21 14.5 0 c14.3 0 14.6 0 17.1 2.6 2.5 2.4 2.6 3 2.3 11 -0.4 7.6 -0.7 8.8 -2.8 10.5 -1.3 1.1 -3.9 1.9 -5.9 1.9 l-3.7 0 8 8 8 8 -5.1 0 -5.1 0 -6.3 -8 c-6.1 -7.8 -6.4 -8 -10.6 -8 l-4.4 0 0 8 0 8 -3 0 -3 0 0 -21z m27 -8 l0 -5 -10.5 0 -10.5 0 0 5 0 5 10.5 0 10.5 0 0 -5z"/>
  <path d="M1094.5 992.5 c-2.4 -2.4 -2.5 -2.7 -2.5 -18.5 0 -15.8 0.1 -16.1 2.5 -18.5 2.3 -2.4 2.9 -2.5 16.8 -2.5 20.2 0 19.2 -1.1 19.2 21 0 22.1 1 21 -19.2 21 -13.9 0 -14.5 -0.1 -16.8 -2.5z m29.5 -18.5 l0 -13 -12.5 0 -12.5 0 0 13 0 13 12.5 0 12.5 0 0 -13z"/>
  <path d="M1148 974 l0 -21 2.4 0 c2 0 3.6 2.1 10.1 13 4.3 7.2 7.9 13 8 13 0.2 0 3.6 -5.8 7.6 -13 6.7 -11.6 7.7 -12.9 10.2 -13 l2.7 0 0 21 0 21 -3 0 -2.9 0 -0.3 -15.2 c-0.2 -10.6 -0.6 -14.7 -1.3 -13.3 -0.9 2 -9.5 17 -12.2 21.3 -1.4 2.3 -1.6 2.2 -7.5 -8 -3.3 -5.6 -6.6 -11.6 -7.4 -13.3 -1.2 -2.7 -1.3 -1.3 -1.4 12.8 l0 15.7 -2.5 0 -2.5 0 0 -21z"/>
  <path d="M1234 994.3 c-3.6 -1.4 -4 -3.3 -4 -22.5 l0 -18.8 3 0 3 0 0 17 0 17 11.5 0 11.5 0 0 -17 0 -17 3 0 3 0 0 18.8 c0 14.7 -0.3 19.2 -1.4 20.8 -1.3 1.7 -2.9 1.9 -14.8 2.1 -7.3 0.1 -14 0 -14.8 -0.4z"/>
  <path d="M1285.3 994 c-4.4 -1.8 -4.4 -8.9 0 -10.1 2.2 -0.6 2.7 -0.4 2.7 1.2 0 1.8 0.8 1.9 11.5 1.9 l11.5 0 0 -4.4 0 -4.4 -12.6 -0.4 c-15.3 -0.4 -15.4 -0.5 -15.4 -12 0 -7.1 0.3 -8.1 2.5 -10.4 2.5 -2.5 2.8 -2.6 15.1 -2.2 11.1 0.3 12.7 0.5 14 2.2 1.9 2.7 1.8 8.2 -0.2 9 -2.6 1 -3.4 0.7 -3.4 -1.4 0 -1.9 -0.7 -2 -11 -2 l-11 0 0 4.5 0 4.5 11.4 0 c15.4 0 16.1 0.5 16.1 12.5 0 12.1 -0.6 12.5 -16.9 12.4 -6.6 0 -13.1 -0.4 -14.3 -0.9z"/>
  <path d="M1327.1 994.3 c0 -0.5 4 -9.8 8.8 -20.8 l8.7 -20 3.3 0 3.3 0 8.4 19 c10.8 24.3 10.3 22.5 6.2 22.5 -3 0 -3.6 -0.5 -5.6 -4.5 l-2.2 -4.5 -10.5 0 -10.6 0 -2 4.5 c-1.7 3.9 -2.4 4.5 -4.9 4.5 -1.7 0 -3 -0.3 -2.9 -0.7z m27.9 -16.7 c0 -0.9 -6.2 -15.2 -7 -15.9 -0.6 -0.7 -1.9 1.8 -6.7 13.1 l-1.3 3.2 7.5 0 c4.1 0 7.5 -0.2 7.5 -0.4z"/>
  <path d="M1029.3 641.9 c-15.8 -2 -24.3 -5.7 -31.1 -13.4 -10.2 -11.6 -33.9 -79.4 -42.6 -121.7 -5.5 -26.8 -5.9 -43.1 -1.3 -53.1 7.8 -17.2 22.6 -32.2 39.7 -40.5 l7.5 -3.6 18.5 -0.7 c24.1 -1 299.9 -1 324 0 l18.5 0.7 7.5 3.6 c22.7 11 41.3 34.1 42.7 53.1 1.8 23.8 -12.2 81.2 -32.4 132.7 -12.2 31.1 -17.6 37.1 -36.9 41.6 -8.7 2 -47.9 3 -73.1 1.9 -19.7 -0.9 -19.6 -1 6.2 -4.5 32.2 -4.4 58 -10.6 67.8 -16.3 3.4 -2 5.2 -4.1 8 -9.4 4.9 -9.3 9.7 -21.3 15.7 -38.9 18 -52.5 26.2 -98.2 19.9 -111 -2.7 -5.7 -13.7 -17.4 -21.5 -23 -4.7 -3.4 -7.9 -4.8 -12.6 -5.7 -9.1 -1.7 -334.5 -1.7 -343.6 0 -4.7 0.9 -7.9 2.3 -12.6 5.7 -8 5.7 -18.8 17.3 -21.7 23.3 -2 4.2 -2.1 5.5 -1.6 18.2 0.6 14.3 3.6 30.7 9.7 53.6 4.6 17.4 17 54.3 22.3 66.2 6.8 15.6 9.1 19 14.5 21.7 11 5.5 32.5 10.7 63 15.1 9.2 1.3 19.2 2.7 22.2 3.2 5.4 0.8 5.4 0.8 -4.5 1.4 -14.1 0.9 -64.8 0.8 -72.2 -0.2z"/>
  <path d="M933 619.4 c-1.9 -0.2 -9.1 -0.9 -16 -1.4 -18 -1.6 -56.5 -6.5 -78 -10.1 -20.6 -3.4 -58.2 -10.8 -59 -11.6 -0.6 -0.7 14.1 0.1 61 3.4 26.9 1.9 46 2.7 67.5 2.7 35.4 0.1 35 0.2 34.2 -7.7 -0.6 -6.3 -13.8 -33 -17.7 -35.9 -3.1 -2.2 -23.3 -9.5 -48.2 -17.4 -10.3 -3.2 -18.6 -5.9 -18.5 -6.1 0.4 -0.3 32.6 2.6 45.7 4.2 15.8 2 31 5 35.5 7.2 3 1.4 4.4 3.3 8.9 12.7 13.8 28.4 21.8 54.8 17.8 58.8 -1.3 1.3 -24.8 2.1 -33.2 1.2z"/>
  <path d="M1400.2 619.4 c-3.8 -0.9 -4.4 -3.5 -2.7 -11.9 1.9 -9 5.9 -20.5 12.2 -35.4 7.2 -17 11.1 -23.6 14.9 -25.5 4.4 -2.1 19.8 -5.1 35.4 -7.1 13.3 -1.6 45.3 -4.5 45.7 -4.2 0.1 0.2 -8.9 3.1 -20 6.6 -25.4 8 -44 14.8 -47 17.2 -2.9 2.2 -14.9 25.3 -17.1 32.8 -1.8 6.2 -1 8.7 3.2 9.8 6.1 1.8 60.6 0.6 98.2 -2 47.2 -3.3 61.6 -4.1 61 -3.4 -0.8 0.8 -38.5 8.2 -59 11.6 -20.2 3.3 -49.3 7.2 -72 9.6 -14.9 1.6 -48.7 2.8 -52.8 1.9z"/>
  <path d="M526 516 c-11 -1 -21.7 -5.8 -47.5 -21.1 -25.2 -15 -45 -30.2 -52.7 -40.4 -6.6 -8.7 -6.3 -13.5 1 -16.9 l4.7 -2.1 107.8 -0.3 107.7 -0.3 0 16.3 c0 9 0.3 27.4 0.7 41.1 l0.6 24.7 -57.4 -0.2 c-31.6 0 -60.8 -0.4 -64.9 -0.8z"/>
  <path d="M687.6 489.5 c-1 -33.4 -0.8 -125.3 0.4 -140 2.1 -25 5.7 -35.3 16.4 -46 8 -8 19.6 -15 49.6 -30.4 13.4 -6.8 24 -12.6 23.5 -12.7 -0.6 -0.2 -13.4 -1 -28.5 -1.9 -31 -1.8 -50.8 -3.7 -61 -6.1 -8 -1.8 -16.4 -7.5 -24.9 -17 -8.5 -9.7 -12.7 -21 -8.8 -24.2 2.6 -2.2 19.4 -8 28.8 -10.1 21.1 -4.5 48.8 -5.2 69.2 -1.6 10 1.7 13.6 3.3 16.6 7.1 3.1 3.9 6 14.5 7.4 26.5 l1.2 10.4 10.5 0.6 c5.8 0.3 10.5 0.6 10.6 0.5 0 -0.1 2.9 -6.4 6.4 -14.1 24.7 -54.3 51 -96.6 75.5 -121.1 14.9 -15 32.8 -26.6 46.3 -30.3 37.7 -10.1 152.3 -18.4 255.2 -18.4 102.9 0 217.5 8.3 255.2 18.4 24.1 6.5 51.7 31.1 77 68.7 13.6 20.3 36.1 62.3 47.7 89.3 l3.3 7.6 10.2 -0.5 c5.5 -0.2 10.4 -0.7 10.7 -1.1 0.3 -0.3 1.1 -5.1 1.7 -10.6 1.9 -17.2 5.8 -26.7 12.2 -30 4.3 -2.2 19.1 -4.5 34 -5.2 26 -1.1 54.8 3.6 72 12 4 2 4.5 2.6 4.8 6.1 0.7 7.8 -8.5 20.7 -21.5 30.6 -5 3.8 -8 5.2 -13.3 6.4 -10.3 2.4 -30.1 4.3 -61.5 6.2 -15.4 0.8 -28.2 1.7 -28.3 1.9 -0.2 0.2 9.5 5.3 21.5 11.4 37.6 19 50.1 27.4 58 38.9 4.7 7 7.7 15.6 9.4 27.7 1.5 10.4 2.4 104.8 1.3 143.5 l-0.7 29.5 -4.3 -38.5 c-7.9 -71 -14.5 -119.8 -18.6 -137.3 -1.9 -8.6 -2.1 -8.9 -7.1 -12.6 -11.2 -8.4 -62.1 -38.3 -84 -49.3 l-11.9 -5.9 -31 30.6 c-17 16.9 -31.2 30.4 -31.5 30.1 -0.3 -0.2 2.8 -6.4 6.7 -13.7 11.5 -21.1 23.9 -46.1 24.6 -49.5 l0.6 -3.1 -12.3 -0.6 c-15.9 -0.9 -633.8 -0.9 -649.7 0 -9.5 0.5 -12.2 0.9 -12.2 2 0 3.5 9.6 23 29.3 59.3 l4.1 7.5 -11.4 -10.5 c-6.2 -5.8 -20.7 -19.9 -32.1 -31.4 l-20.7 -20.9 -12.1 6.2 c-23.3 11.8 -75.6 42.6 -85.2 50.2 -2.1 1.7 -4 4.3 -4.7 6.6 -3.9 13.2 -12 72.5 -21 155.3 l-2.8 25.5 -0.8 -22z m220.7 -257.4 c0.4 -0.4 2.1 -6.3 3.7 -13.2 8.1 -33.2 19.5 -63.7 32.2 -86.5 l5.1 -9 12.6 -4.4 c6.9 -2.4 13.2 -4.5 13.8 -4.8 0.7 -0.2 0.2 1.6 -1.2 4 -9.1 16.3 -22 53.2 -30.9 88.4 -3.1 12.2 -5.6 22.9 -5.6 23.7 0 1.4 2.7 1.5 23.3 1 12.7 -0.3 23.3 -0.7 23.5 -0.8 0.1 -0.1 0.9 -5.3 1.7 -11.5 2.4 -18.3 5.4 -36.3 9.1 -54.5 4.1 -20.1 14 -59.5 15.3 -60.8 2.3 -2.3 55.2 -14.4 88.4 -20.2 5.4 -1 9.6 -2 9.3 -2.2 -0.5 -0.5 -28.2 0.9 -63.6 3.3 -48.1 3.2 -91.8 8.2 -106.2 12.2 -9.3 2.6 -16.6 7.2 -27.1 17.2 -18.2 17.2 -36.7 45 -53.8 80.5 -6.6 13.9 -14.9 32.8 -16.4 37.4 l-0.7 2.4 33.3 -0.8 c18.4 -0.4 33.7 -1 34.2 -1.4z"/>
  <path d="M764.5 439 c-16.3 -1.7 -31 -5.7 -33.1 -9.1 -2.7 -4.5 -2 -45.2 1.3 -72.9 l1.7 -14.5 1.3 19.5 c1.8 28.3 4.3 42 8.8 47.6 l2.3 2.9 40.9 -0.1 c27.8 0 48.1 -0.6 63.8 -1.7 38 -2.8 60.3 -5.8 59.8 -8.1 -0.7 -2.9 -71.3 -32.9 -129 -54.7 -7.8 -2.9 -14 -5.5 -13.8 -5.7 0.2 -0.2 14.7 3.5 32.4 8.2 88.5 23.8 141.2 41 149.9 48.9 6.8 6.3 -2.9 17.3 -21.8 24.6 -11.5 4.5 -47.1 9.9 -89 13.6 -21.6 1.9 -63.4 2.7 -75.5 1.5z"/>
  <path d="M1550 439.3 c-14.1 -0.7 -45.5 -3.5 -64 -5.9 -39.6 -4.9 -52.6 -8.3 -65 -16.5 -9.9 -6.7 -12.7 -13 -7.6 -17.8 7.3 -6.8 57.4 -23.6 128.6 -42.9 43.5 -11.9 53.2 -14.4 53.5 -14 0.2 0.2 -6 2.7 -13.8 5.7 -56.4 21.3 -128.1 51.7 -128.7 54.6 -0.4 2.4 20.5 5.3 58 8.1 24.1 1.8 98.9 3 104 1.7 7.5 -1.9 11.1 -15.5 13.4 -50.5 l1.2 -18.3 1.2 9.5 c3.1 24.4 4.5 69.5 2.2 75.4 -1.2 3.3 -5.1 5.2 -15.2 7.6 -14.9 3.4 -39.3 4.6 -67.8 3.3z"/>
  <path d="M473.8 412 c-6.6 -0.6 -9.6 -1.6 -20.3 -6.8 -31.6 -15.3 -66 -39.1 -78.2 -54 -7.1 -8.7 -7.1 -14 0 -17.2 4.1 -1.9 8.4 -2 142 -2 75.7 0 137.7 0.2 137.7 0.5 0 0.3 -0.7 4.9 -1.5 10.3 -1.6 10.9 -4 38.3 -5.1 57.5 l-0.6 12.7 -83.2 -0.1 c-45.7 -0.1 -86.6 -0.5 -90.8 -0.9z"/>
  <path d="M472 309.1 c-60.8 -0.8 -53.4 0.2 -74.8 -10.5 -25.6 -12.8 -51.6 -30.3 -66.5 -44.5 -12.3 -11.8 -14.8 -19.4 -7.7 -23.6 3.5 -2 4.4 -2 149.8 -2.3 140 -0.2 146.2 -0.1 146.2 1.6 0 2.8 6.7 16 11.5 22.8 8 11.1 27.2 27.2 37.1 31 l4.4 1.7 -1.9 2.6 c-2.8 3.9 -6.7 12.1 -8.1 16.9 l-1.3 4.2 -40.7 0 c-22.4 0 -52.8 0.2 -67.6 0.4 -14.8 0.2 -51 0.1 -80.4 -0.3z"/>
  <path d="M411.5 205.1 c-50.2 -0.8 -45.4 0 -66.8 -11.1 -26.3 -13.5 -50.2 -29.7 -65 -43.9 -12.4 -12 -14.8 -19.4 -7.7 -23.6 l3.5 -2 273.2 -0.3 273.2 -0.2 -8 12.7 c-4.4 7.1 -11.4 19 -15.6 26.5 l-7.5 13.7 -3.2 -2.3 c-11.3 -8.5 -32.9 -12.9 -64.6 -13 -34.1 -0.1 -62.5 5.7 -84.2 17.1 -8.4 4.4 -14.6 11 -18.4 19.8 l-2.8 6.5 -22.1 0 c-12.1 0 -48.5 0.2 -81 0.4 -32.4 0.2 -78.8 0.1 -103 -0.3z"/>
 </g>
 <g fill="#c82b25">
  <path d="M929.5 899.4 c-29.3 -6.2 -49.6 -33.5 -55 -74.1 -0.8 -6 -1.5 -11.1 -1.5 -11.5 0 -0.5 10.3 -0.8 22.8 -0.8 l22.8 0 1.2 9.3 c2.1 16.8 6 25.3 14.1 30.8 9.6 6.4 25.2 4.5 32.4 -4 4.7 -5.6 10.7 -21.3 10.7 -27.9 0 -1.8 2 -1.2 19.7 5.8 10.9 4.3 19.9 8.3 20.1 8.9 0.6 1.7 -3.7 17 -7 25 -4.1 9.8 -11.7 21 -18 26.5 -11.4 9.9 -23.1 13.6 -42.7 13.5 -6.9 0 -15.7 -0.7 -19.6 -1.5z"/>
  <path d="M1404 899.5 c-14 -2.9 -21.4 -6.8 -29.2 -15.4 -9 -10 -16.6 -28.7 -18 -44.7 l-0.5 -5 16.6 -1.3 c9.1 -0.6 18.9 -1.4 21.7 -1.8 l5.1 -0.5 0.7 5.2 c2.7 20.4 16.4 31.5 33.1 26.9 10.2 -2.8 16.2 -16.4 11.9 -26.7 -3.4 -8.2 -8.7 -11.6 -28.9 -18.1 -7.1 -2.4 -13.2 -4.5 -13.4 -4.7 -0.2 -0.2 18.7 -0.4 42.1 -0.4 l42.6 0 1.4 5.3 c1.9 7.7 1.7 28.6 -0.5 36.7 -6.5 23.8 -22.1 39.4 -44.4 44.4 -8.8 2 -30.9 2 -40.3 0.1z"/>
  <path d="M1026 897.2 c0 -0.7 15.1 -53.7 22.1 -77.4 l2 -6.8 20.9 0 20.8 0 -0.8 3.3 c-0.4 1.7 -1.1 4.4 -1.4 6 l-0.6 2.7 16.6 0 16.7 0 -0.7 -3.7 c-0.3 -2.1 -0.9 -4.8 -1.2 -6 l-0.6 -2.3 21.3 0 21.4 0 11.9 41.3 c6.5 22.6 12.1 41.8 12.3 42.5 0.4 0.9 -4.7 1.2 -23.4 1.2 l-23.9 0 -3.3 -14.2 c-1.8 -7.9 -3.5 -15.1 -3.7 -16 -0.5 -1.7 -2.6 -1.8 -26.9 -1.8 l-26.3 0 -1.7 7.3 c-0.9 3.9 -2.5 11.1 -3.6 16 l-2.1 8.7 -22.9 0 c-12.6 0 -22.9 -0.4 -22.9 -0.8z"/>
  <path d="M1203 855.5 l0 -42.5 49.3 0 49.2 0 5.2 3 c10.1 5.8 15.7 15.4 29.3 49.5 5 12.7 9.9 25.1 11 27.8 l1.9 4.7 -25.7 0 -25.7 0 -14.4 -34.7 c-11.5 -27.5 -15.2 -35.4 -18 -38.3 -3.5 -3.6 -8.9 -6 -13.8 -6 l-2.3 0 0 39.5 0 39.5 -23 0 -23 0 0 -42.5z"/>
  <path d="M873 792.6 c0 -7.2 2.8 -26.5 5 -34.5 9.4 -33.5 30.4 -52.9 60.9 -56 17.1 -1.8 34.7 1.6 46.1 8.9 7.2 4.6 15.8 14.5 20.7 23.6 4.6 8.6 10.6 25.5 9.5 26.5 -0.6 0.6 -36 10.9 -38.5 11.3 -0.4 0 -1.7 -2.6 -2.8 -5.9 -4.4 -12.9 -13.4 -20.4 -24.4 -20.5 -7.4 0 -11.7 1.6 -16.8 6.1 -8.2 7.2 -13.7 22.6 -13.7 38.5 l0 6.4 -23 0 -23 0 0 -4.4z"/>
  <path d="M1055.2 795.3 c0.3 -1 6.3 -21.7 13.3 -46.1 l12.8 -44.2 25.1 0.2 25 0.3 13.2 45.8 13.2 45.7 -20.9 0 -20.8 0 -1 -3.7 c-0.5 -2.1 -2.6 -11 -4.7 -19.8 -2 -8.8 -4 -16.6 -4.4 -17.3 -0.3 -0.7 -2.9 8.2 -5.6 19.7 l-4.9 21.1 -20.4 0 c-18.9 0 -20.3 -0.1 -19.9 -1.7z"/>
  <path d="M1203 751 l0 -46 44.8 0 c48.6 0.1 55.9 0.7 65.7 5.4 2.9 1.5 7.4 4.9 9.9 7.6 14.5 15.5 17.9 46.7 7.6 68.9 -5.3 11.2 2.3 10.1 -67.2 10.1 l-60.8 0 0 -46z m75.1 30.4 c3 -0.9 6.3 -2.3 7.3 -3.2 5.5 -4.9 7.3 -17.8 3.6 -26 -3 -6.7 -8 -8.4 -25.7 -9 l-14.3 -0.5 0 20.2 0 20.1 11.8 0 c7.9 0 13.6 -0.5 17.3 -1.6z"/>
  <path d="M1372.1 791.4 c-18.9 -26.3 -10.3 -67.8 17 -82.3 9.4 -5.1 19.5 -7.2 34.4 -7.3 15.2 0 24.5 1.7 34 6.2 15.2 7.2 25.2 23.6 28.1 45.8 l0.7 5.2 -2.9 0 c-1.6 0 -10.8 0.7 -20.4 1.5 -9.6 0.8 -18 1.5 -18.5 1.5 -0.6 0 -1.6 -2.6 -2.3 -5.8 -0.7 -3.2 -2.4 -7.7 -3.9 -10 -6.7 -10.3 -24.2 -12.4 -30.8 -3.8 -4.6 6 -4.6 13 0 18.4 2.7 3.2 6.2 4.6 27.2 11.1 17 5.3 31.1 12.4 38.8 19.5 l6 5.5 -51.7 0.1 -51.7 0 -4 -5.6z"/>
  <path d="M1716.4 476 l0.1 -41.1 108 0.3 108 0.3 4.7 2.1 c7.4 3.5 7.6 8 0.7 17.1 -11.6 15.5 -58.9 47.1 -87.4 58.5 l-8 3.2 -63.1 0.4 -63.1 0.4 0.1 -41.2z"/>
  <path d="M1714.6 397.6 c-0.7 -17.1 -3 -43.4 -5 -56.8 l-1.3 -8.8 137.8 0 c124.8 0 138.2 0.2 141.9 1.6 8.9 3.6 7.9 10.5 -3.3 22.2 -13.5 14.1 -47.1 36.4 -75.3 49.9 -10.1 4.8 -12.4 5.6 -20.6 6.3 -5.1 0.5 -46.2 1 -91.4 1 l-82.1 0 -0.7 -15.4z"/>
  <path d="M1754 309.2 l-50.6 -0.2 -2.3 -7 c-1.3 -3.9 -3.8 -9.1 -5.6 -11.7 l-3.1 -4.7 6.5 -3.1 c10.9 -5.2 25.6 -18 34.6 -30 4.3 -5.6 11.5 -19.9 11.5 -22.7 0 -1.8 5.5 -1.8 146.3 -1.6 145.3 0.3 146.2 0.3 149.7 2.3 7.2 4.3 4.6 12 -8.2 24.1 -14.8 14 -44.8 33.7 -70.5 46.2 -12.5 6 -14.1 6.5 -22.6 7.3 -10.8 0.9 -113.4 1.5 -185.7 1.1z"/>
  <path d="M1788.5 205.3 l-42.1 -0.3 -2.8 -6.5 c-4 -9.2 -10 -15.4 -19.3 -20.3 -24.9 -12.8 -63.6 -19.2 -99.3 -16.3 -24.7 2 -39.9 6 -48.6 12.6 l-3.2 2.4 -8.6 -15.4 c-4.7 -8.5 -11.7 -20.4 -15.6 -26.5 l-7 -11 273.3 0.2 273.2 0.3 3.5 2 c4.6 2.7 5.1 6.9 1.6 12.9 -7.6 12.9 -41.2 37.6 -75 55 -20.6 10.6 -15 9.8 -73.6 10.7 -49.7 0.7 -65.2 0.7 -156.5 0.2z"/>
 </g>
 <g fill="#24316b">
  <path d="M526 516 c-11 -1 -21.7 -5.8 -47.5 -21.1 -25.2 -15 -45 -30.2 -52.7 -40.4 -6.6 -8.7 -6.3 -13.5 1 -16.9 l4.7 -2.1 107.8 -0.3 107.7 -0.3 0 16.3 c0 9 0.3 27.4 0.7 41.1 l0.6 24.7 -57.4 -0.2 c-31.6 0 -60.8 -0.4 -64.9 -0.8z m18.9 -21.6 l7 3.6 -0.5 -2.8 c-0.2 -1.5 -0.9 -4.9 -1.4 -7.7 l-1 -5 5.5 -5 c3 -2.8 5.5 -5.3 5.5 -5.7 0 -0.3 -2.1 -0.9 -4.7 -1.2 -10.4 -1.4 -10.1 -1.3 -14 -8.9 l-3.6 -7.2 -3.3 7.2 c-3.5 7.7 -3.1 7.4 -13.6 8.9 -2.7 0.3 -4.8 0.9 -4.8 1.3 0 0.4 2.3 2.9 5.1 5.6 5 5 5 5 4.4 9.9 -0.3 2.7 -0.9 6.2 -1.2 7.9 l-0.6 3 7 -3.7 7.1 -3.7 7.1 3.5z m75.4 0 c7.4 4.1 7.2 4.3 5.6 -5.2 l-1.1 -6.4 5.6 -5.7 5.7 -5.8 -7.6 -1 c-4.2 -0.6 -7.8 -1.3 -8 -1.5 -0.1 -0.1 -1.9 -3.4 -3.8 -7.3 l-3.5 -7 -3.3 7 c-1.8 3.9 -3.3 7.1 -3.4 7.2 -0.1 0.2 -3.6 0.8 -7.9 1.4 l-7.8 1.2 5.6 5.6 5.6 5.6 -1.4 7.7 -1.3 7.6 7.2 -3.5 7.2 -3.6 6.6 3.7z"/>
  <path d="M473.8 412 c-6.6 -0.6 -9.6 -1.6 -20.3 -6.8 -31.6 -15.3 -66 -39.1 -78.2 -54 -7.1 -8.7 -7.1 -14 0 -17.2 4.1 -1.9 8.4 -2 142.1 -2 l137.9 0 -0.6 2.8 c-0.3 1.6 -1.4 9.3 -2.3 17.1 l-1.8 14.3 -3 -0.6 c-1.6 -0.4 -3 -0.7 -3 -0.9 -0.1 -0.1 -1.6 -3.3 -3.5 -7.2 l-3.3 -7 -3.5 7 c-2 3.9 -3.7 7.2 -3.8 7.3 -0.2 0.2 -3.8 0.9 -8 1.5 l-7.6 1 5.7 5.8 5.6 5.7 -1.1 6.4 c-1.6 9.5 -1.8 9.4 5.6 5.3 l6.7 -3.7 5.9 2.9 5.9 2.8 -0.6 5.9 c-0.3 3.2 -0.6 7.9 -0.6 10.2 l0 4.4 -83.2 -0.1 c-45.8 -0.1 -86.8 -0.5 -91 -0.9z m20.1 -21.6 c6 3.1 7.2 3.4 6.7 1.9 -0.3 -1 -1 -4.5 -1.6 -7.8 l-1.1 -6 5.6 -5.3 c3 -3 5.5 -5.5 5.5 -5.7 0 -0.1 -2.6 -0.6 -5.7 -0.9 -8.8 -1.1 -9.1 -1.3 -13 -8.9 l-3.5 -7.1 -3.5 6.9 c-2 3.9 -3.7 7.2 -3.8 7.3 -0.2 0.2 -3.8 0.9 -8 1.5 l-7.6 1 5.7 5.8 5.8 5.8 -1.2 6.4 c-0.7 3.5 -1.2 7 -1.2 7.6 0 0.7 2.9 -0.3 6.8 -2.4 l6.8 -3.7 7.3 3.6z m75.3 0.2 l7.1 3.7 -0.6 -3.4 c-2.3 -12.6 -2.5 -11.5 3.7 -17.8 l5.7 -5.8 -7.6 -1 c-4.2 -0.6 -7.8 -1.3 -8 -1.5 -0.1 -0.1 -1.8 -3.4 -3.8 -7.3 l-3.5 -6.9 -3.5 7.1 c-3.9 7.6 -4 7.6 -13.4 8.9 -2.9 0.3 -5.3 0.8 -5.3 1.1 0 0.2 2.5 2.7 5.6 5.6 l5.5 5.2 -1.1 5.5 c-0.6 3 -1.3 6.5 -1.6 7.8 -0.4 2.2 -0.2 2.1 6.7 -1.3 l7.1 -3.6 7 3.7z"/>
  <path d="M472 309.1 c-60.8 -0.8 -53.4 0.2 -74.8 -10.5 -25.6 -12.8 -51.6 -30.3 -66.5 -44.5 -12.3 -11.8 -14.8 -19.4 -7.7 -23.6 3.5 -2 4.4 -2 149.8 -2.3 140.7 -0.2 146.2 -0.2 146.2 1.6 0 2.5 7.1 16.8 11.2 22.5 1.9 2.6 7.2 8.8 11.8 13.8 l8.2 9 -0.6 5.2 c-0.4 2.9 -1 6.2 -1.3 7.5 -0.5 2.3 -0.4 2.3 6.6 -1.2 l7.1 -3.6 4.1 2 c2.2 1.2 3.9 2.4 3.7 2.8 -0.2 0.4 -1.7 3.4 -3.4 6.7 -1.8 3.3 -3.7 7.9 -4.4 10.3 l-1.3 4.2 -40.7 0 c-22.4 0 -52.8 0.2 -67.6 0.4 -14.8 0.2 -51 0.1 -80.4 -0.3z m-29.6 -22.8 c3.7 2.1 6.8 3.7 7 3.7 0.2 0 -0.3 -3.4 -1.1 -7.7 l-1.4 -7.6 5.6 -5.7 5.6 -5.7 -7.6 -1 c-4.2 -0.6 -7.8 -1.3 -8 -1.5 -0.1 -0.1 -1.8 -3.4 -3.7 -7.1 l-3.4 -6.8 -3.3 7 c-3.7 7.5 -3.7 7.5 -13.4 8.7 l-5.9 0.7 5.7 5.7 5.7 5.8 -1.1 6.4 c-0.6 3.6 -1.1 7 -1.1 7.7 0 0.7 2.7 -0.2 6.9 -2.5 l6.9 -3.7 6.6 3.6z m75.7 0.3 l7.2 3.6 -0.7 -3.4 c-0.4 -1.8 -0.9 -5.3 -1.2 -7.8 -0.6 -4.4 -0.4 -4.7 4.5 -9.5 2.8 -2.7 5.1 -5.2 5.1 -5.6 0 -0.4 -2.6 -1 -5.7 -1.4 -8.6 -1.1 -9.6 -1.7 -12.7 -8.4 -1.7 -3.3 -3.3 -6.1 -3.6 -6.1 -0.3 0 -1.9 2.7 -3.5 6.1 -1.6 3.3 -3.6 6.4 -4.5 6.9 -0.8 0.4 -4.3 1.1 -7.7 1.5 -3.5 0.4 -6.3 1.1 -6.3 1.5 0 0.4 2.4 3 5.4 5.7 l5.4 5 -1.4 7.4 c-0.8 4.1 -1.4 7.5 -1.4 7.7 0 0.1 3.2 -1.4 7 -3.3 l7 -3.5 7.1 3.6z m75.2 -0.2 c7.6 4.2 7.5 4.3 5.6 -5.9 l-1.1 -5.8 5.7 -5.7 5.6 -5.7 -7.6 -1 c-4.2 -0.6 -7.8 -1.3 -8 -1.5 -0.1 -0.1 -1.8 -3.4 -3.7 -7.1 l-3.4 -6.8 -3.3 7 c-3.7 7.5 -3.7 7.5 -13.4 8.7 l-5.9 0.7 5.8 5.8 5.7 5.8 -1.1 5.7 c-2.1 10.1 -2.1 10 5.6 5.8 l6.9 -3.8 6.6 3.8z"/>
  <path d="M411.5 205.1 c-50.2 -0.8 -45.4 0 -66.8 -11.1 -26.3 -13.5 -50.2 -29.7 -65 -43.9 -12.4 -12 -14.8 -19.4 -7.7 -23.6 l3.5 -2 273.2 -0.3 273.2 -0.2 -8 12.7 c-4.4 7.1 -11.4 19 -15.6 26.5 l-7.5 13.7 -3.8 -2.8 c-2.2 -1.6 -5.3 -3.4 -7 -4.1 -1.6 -0.7 -3 -1.5 -3 -1.9 0 -0.4 1.6 -2.2 3.5 -4.1 1.9 -1.9 3.5 -3.7 3.5 -4.1 0 -0.4 -2.8 -1 -6.2 -1.4 -3.5 -0.4 -7 -1.1 -7.8 -1.5 -0.9 -0.5 -2.9 -3.6 -4.5 -6.9 -1.6 -3.4 -3.2 -6.1 -3.5 -6.1 -0.3 0 -1.9 2.7 -3.5 6.1 -1.6 3.3 -3.6 6.4 -4.5 6.9 -0.8 0.4 -4.5 1.1 -8.3 1.5 -5 0.5 -6.5 1 -5.8 1.9 0.8 0.9 -3.1 1.2 -15.9 1.1 -12.2 0 -16.6 -0.3 -15.9 -1.1 0.6 -0.8 -0.8 -1.3 -4.8 -1.8 -9.6 -1.1 -9.7 -1.2 -13.4 -8.7 l-3.3 -7 -3.4 6.8 c-1.9 3.7 -3.6 7 -3.7 7.1 -0.2 0.2 -3.8 0.9 -8 1.4 l-7.6 1.1 3.7 3.8 3.7 3.8 -4.4 1.1 c-8.2 2 -19.4 6.3 -27.2 10.3 -9.3 4.8 -15.3 11 -19.3 20.2 l-2.8 6.5 -22.1 0 c-12.1 0 -48.5 0.2 -81 0.4 -32.4 0.2 -78.8 0.1 -103 -0.3z m-20.4 -22.7 c7.8 4.2 7.7 4.4 5.8 -5.9 l-1.1 -5.8 5.7 -5.7 5.6 -5.7 -7.6 -1 c-4.2 -0.6 -7.8 -1.3 -8 -1.5 -0.1 -0.1 -1.8 -3.4 -3.7 -7.1 l-3.4 -6.8 -3.3 7 c-3.7 7.5 -3.7 7.5 -13.4 8.7 l-5.9 0.7 5.7 5.7 5.7 5.7 -1.1 5.8 c-1.9 10.3 -2 10.2 5.5 6 l6.7 -3.8 6.8 3.7z m76 0.1 l7 3.6 -0.7 -3.8 c-0.3 -2.1 -1 -5.4 -1.4 -7.5 -0.7 -3.4 -0.5 -3.9 4.6 -8.9 3 -2.9 5.4 -5.6 5.4 -6 0 -0.4 -2.8 -1 -6.2 -1.4 -3.5 -0.4 -7 -1.1 -7.8 -1.5 -0.9 -0.5 -2.9 -3.6 -4.5 -6.9 -1.6 -3.4 -3.2 -6.1 -3.5 -6.1 -0.3 0 -1.9 2.7 -3.5 6.1 -1.6 3.3 -3.6 6.4 -4.5 6.9 -0.8 0.4 -4.3 1.1 -7.7 1.5 -3.5 0.4 -6.3 1 -6.3 1.4 0 0.4 2.3 2.9 5.1 5.6 l5.1 5 -0.6 5.5 c-0.4 3 -0.9 6.5 -1.3 7.8 -0.5 2.3 -0.4 2.3 6.6 -1.2 l7.1 -3.6 7.1 3.5z m75 -0.1 c7.8 4.3 7.8 4.3 5.7 -5.8 l-1.1 -5.7 5.7 -5.8 5.7 -5.8 -5.7 -0.7 c-9.7 -1.1 -9.8 -1.2 -13.5 -8.7 l-3.3 -7 -3.4 6.8 c-1.9 3.7 -3.6 7 -3.7 7.1 -0.2 0.2 -3.8 0.9 -8 1.5 l-7.6 1 5.6 5.7 5.7 5.7 -1.1 5.8 c-1.9 10.3 -2 10.2 5.5 6 l6.7 -3.8 6.8 3.7z m75.9 0.1 l6.9 3.5 -0.5 -2.8 c-0.2 -1.5 -0.8 -4.8 -1.3 -7.4 l-0.8 -4.7 5.3 -5.2 c3 -3 5.4 -5.6 5.4 -6 0 -0.4 -2.8 -1 -6.2 -1.4 -3.5 -0.4 -7 -1.1 -7.8 -1.5 -0.9 -0.5 -2.9 -3.6 -4.5 -6.9 -1.6 -3.4 -3.2 -6.1 -3.5 -6.1 -0.3 0 -1.9 2.7 -3.5 6.1 -1.6 3.3 -3.6 6.4 -4.5 6.9 -0.8 0.4 -4.3 1.1 -7.7 1.5 -3.5 0.4 -6.3 1 -6.3 1.4 0 0.4 2.3 2.9 5.1 5.6 4.9 4.8 5.1 5.1 4.5 9.5 -0.3 2.5 -0.8 6 -1.2 7.8 l-0.7 3.4 7.2 -3.6 7.1 -3.6 7 3.5z"/>
 </g>
</svg>