<?xml version="1.0" encoding="utf-8"?>
<!DOCTYPE svg PUBLIC "-//W3C//DTD SVG 20010904//EN" "http://www.w3.org/TR/2001/REC-SVG-20010904/DTD/svg10.dtd">
<svg version="1.0" xmlns="http://www.w3.org/2000/svg" width="1997px" height="1997px" viewBox="0 0 1997 1997" preserveAspectRatio="xMidYMid meet">
 <g fill="#000000">
  <path d="M0 998.5 l0 -998.5 998.5 0 998.5 0 0 998.5 0 998.5 -998.5 0 -998.5 0 0 -998.5z"/>
 </g>
 <g fill="#24316b">
  <path d="M352 983 l-19.5 -0.6 -13.7 -6.6 c-39.4 -19 -78.1 -47.5 -83.3 -61.3 -1.8 -4.5 -1.8 -4.7 0.2 -7.3 4.4 -6 -2.2 -5.7 117.1 -6 l109.2 -0.3 0 33.3 c0 18.3 0.3 37 0.7 41.6 l0.6 8.2 -45.9 -0.2 c-25.2 -0.1 -54.7 -0.4 -65.4 -0.8z"/>
  <path d="M299.4 879.1 l-18.1 -0.6 -15.6 -7.7 c-28.5 -14.1 -56.8 -32.9 -71.8 -47.8 -11.9 -11.9 -13.6 -19.4 -5.2 -23.6 3.7 -1.8 8.5 -1.9 142.6 -2.2 132.5 -0.2 138.8 -0.2 138.3 1.5 -1.8 5.9 -5.4 42.1 -6.4 65.3 l-0.7 15.5 -72.5 0.1 c-39.9 0 -80.6 -0.2 -90.6 -0.5z"/>
  <path d="M247 775 l-16.5 -0.6 -9.2 -4.1 c-34.9 -15.5 -79.1 -46.9 -86.9 -61.7 -3.6 -6.9 -2.8 -10.1 3.1 -13.1 3.9 -2 6.3 -2 149.6 -2.3 l145.6 -0.2 1.2 4.2 c3.1 10.4 9.4 20.2 20 31.1 9 9.3 18.6 16.7 26.5 20.3 3.1 1.4 5.6 2.7 5.6 2.9 0 0.1 -1.6 2.8 -3.4 6 -1.9 3.1 -4.5 8.6 -5.8 12.1 l-2.3 6.4 -105.5 -0.2 c-58 -0.1 -112.9 -0.4 -122 -0.8z"/>
  <path d="M194.5 671.1 c-15 -0.6 -15 -0.7 -24.5 -4.9 -13 -5.8 -28.8 -14.7 -45.5 -25.7 -38.2 -25 -51.9 -42.9 -37.7 -49.3 3.4 -1.6 22.4 -1.7 277 -2 150.2 -0.1 273.2 0 273.2 0.3 0 0.3 -2.2 3.8 -4.8 7.8 -5.7 8.4 -15.8 25.4 -22.6 38 l-4.7 8.8 -2.9 -2.5 c-11.4 -9.5 -37.1 -14.3 -72.5 -13.3 -29 0.7 -53.4 5.8 -73.2 15.2 -11.7 5.5 -19.7 14.6 -23.7 26.8 -0.5 1.6 -6.6 1.7 -111.8 1.5 -61.2 -0.1 -118 -0.4 -126.3 -0.7z"/>
 </g>
 <g fill="#ca342b">
  <path d="M750.3 1367 c-12.9 -1.4 -27 -7.5 -35.1 -15.3 -8.9 -8.5 -17.2 -22.5 -22.2 -37.5 -2.6 -8 -6 -26.2 -6 -32.6 l0 -2.6 22.9 0 23 0 0.6 5.8 c2.6 22.1 9 33.2 21.1 36.8 17.2 5 30 -6.1 35.4 -30.8 0.7 -3.2 1.4 -5.8 1.5 -5.8 0 0 9.1 3.5 20 7.9 19.9 7.8 20 7.9 19.7 10.7 -1.3 11.5 -9.7 31.7 -17.6 42.2 -5.2 6.7 -14.2 13.8 -22.2 17.3 -9.4 4.1 -25.1 5.6 -41.1 3.9z"/>
  <path d="M1220.5 1366.4 c-4.4 -0.8 -10.1 -2.1 -12.7 -3 -5.8 -1.9 -15.3 -8 -19.4 -12.5 -5.6 -6.2 -11.9 -18.1 -14.7 -27.9 -1.7 -5.8 -4.2 -21.9 -3.6 -22.4 0.4 -0.4 37 -3.6 41 -3.6 2.3 0 2.7 0.6 4.3 7.8 1 4.2 2.7 9.3 3.7 11.3 5 10 15 15 25.8 12.8 11 -2.2 17.9 -13.6 14.7 -24.3 -3 -9.9 -7.2 -12.8 -29.6 -20.3 l-14.5 -4.8 42.5 -0.3 c23.4 -0.1 43 0 43.6 0.2 3.3 1.3 4.5 27.1 1.9 39.8 -2.5 11.8 -8.6 23.1 -16.9 31.4 -8 8 -14.3 11.6 -25.4 14.5 -9.9 2.6 -29.5 3.2 -40.7 1.3z"/>
  <path d="M839.5 1361.9 c1 -3.2 13.8 -47 19.2 -66.1 l4.8 -16.8 21.4 0 21.3 0 -0.6 2.6 c-0.4 1.5 -1 3.9 -1.3 5.5 l-0.5 2.9 16.1 0 c8.8 0 16.1 -0.1 16.1 -0.2 0 -0.2 -0.7 -2.7 -1.4 -5.5 l-1.4 -5.3 21.8 0 c20 0 21.9 0.2 22.4 1.8 0.3 0.9 3.3 11.2 6.6 22.7 3.4 11.6 8.6 29.4 11.6 39.6 3 10.2 5.4 19.1 5.4 19.7 0 1.8 -47.9 1.7 -48.4 0 -0.3 -0.7 -1.6 -6.7 -3.1 -13.3 -1.5 -6.6 -3 -13.1 -3.4 -14.5 l-0.8 -2.5 -25.9 0 -25.9 0 -2.1 9.5 c-1.2 5.2 -2.8 12.2 -3.6 15.5 l-1.3 6 -23.8 0.3 -23.8 0.2 0.6 -2.1z"/>
  <path d="M1017 1321.5 l0 -42.5 49.8 0 49.7 0 5.3 3 c5.7 3.3 10.2 8.7 15.6 19 3 5.6 22.9 54.1 25 60.8 l0.7 2.2 -26.1 -0.2 -26.2 -0.3 -8 -19 c-4.4 -10.4 -10.6 -25.5 -13.8 -33.3 -8.2 -20 -12.7 -25.2 -21.7 -25.2 l-4.3 0 0 39 0 39 -23 0 -23 0 0 -42.5z"/>
  <path d="M686.7 1263.4 c-0.6 -0.6 -0.2 -6.8 1.4 -21.2 4.3 -38.6 23.7 -64.8 53.9 -72.9 4.9 -1.4 10.1 -1.8 21 -1.7 12.9 0.1 15.4 0.4 22.6 2.7 15.6 5.2 26.7 14.9 34.9 30.7 4 7.9 9.5 22.5 9.5 25.5 0 1 -36.5 12.5 -39.7 12.5 -0.6 0 -1.8 -2.6 -2.7 -5.8 -2.3 -7.6 -7.4 -14.4 -13.3 -17.9 -4 -2.3 -5.9 -2.8 -11.3 -2.8 -10.6 0.1 -19.3 6.3 -24.4 17.5 -2.8 6.1 -5.6 20.4 -5.6 28.6 l0 5.4 -22.8 0 c-12.6 0 -23.1 -0.3 -23.5 -0.6z"/>
  <path d="M868.4 1262.3 c0.3 -1 5.5 -19.1 11.6 -40.3 6.1 -21.2 12 -41.5 13.1 -45.2 l2 -6.8 24.9 0 c13.7 0 25.1 0.3 25.3 0.8 0.7 1.1 26.7 90.9 26.7 92.2 0 0.7 -6.8 1 -21.2 0.8 l-21.2 -0.3 -1.2 -5 c-0.7 -2.7 -2.9 -12.2 -5 -21 l-3.7 -16 -2.3 9.5 c-1.2 5.2 -3.4 14.8 -4.9 21.3 l-2.7 11.7 -21 0 c-19.5 0 -20.9 -0.1 -20.4 -1.7z"/>
  <path d="M1016.5 1262.8 c-0.2 -0.7 -0.3 -21.8 -0.2 -46.8 l0.2 -45.5 45.5 0 c49.9 0 55.1 0.4 65.7 5.6 10.5 5.1 18 15.7 21.9 30.8 1.2 5 1.5 9.6 1.2 20 -0.5 15.2 -2.6 23.2 -8.2 31.8 l-3.1 4.8 -61.3 0.3 c-48.5 0.2 -61.3 0 -61.7 -1z m73.5 -15.3 c10.5 -2.8 14.5 -8 14.5 -19 0 -8.2 -2.2 -12.8 -7.5 -16 -3 -1.7 -5.6 -2 -18.7 -2.3 l-15.3 -0.4 0 19.6 0 19.6 10.8 0 c6.1 0 13 -0.6 16.2 -1.5z"/>
  <path d="M1187.7 1260 c-8 -8.8 -11.7 -20.2 -11.8 -36 -0.1 -17.4 5.5 -31.5 16.7 -41.9 6.8 -6.4 13.3 -9.9 23.4 -12.7 9.3 -2.5 34.9 -2.6 44 -0.1 20.7 5.6 32.3 17.9 38 40.1 2 8 2.6 15.6 1.3 15.6 -0.5 0 -8.7 0.7 -18.3 1.5 -25.9 2.2 -23.4 2.6 -25.4 -4.7 -3.5 -12.7 -9.4 -17.8 -20.8 -17.8 -10.4 0 -15.8 4.9 -15.8 14.4 0 3.6 0.6 5.2 3 8 2.7 3.1 5.2 4.2 22.1 9.6 10.4 3.3 22.2 7.6 26.2 9.4 8.1 3.7 18.6 11.3 21.8 15.7 l2 2.9 -51.4 0 -51.5 0 -3.5 -4z"/>
  <path d="M1530 942.6 l0 -41.7 108.8 0.3 c98.4 0.3 109 0.5 112.3 1.9 7.8 3.6 8.1 9 1 18.3 -10.5 13.5 -43.5 36.6 -74.6 52.1 -11.6 5.8 -16.7 7.8 -21.6 8.5 -3.5 0.5 -33.3 1.2 -66.1 1.6 l-59.8 0.7 0 -41.7z"/>
  <path d="M1528.6 866.4 c-0.6 -13.2 -3.2 -43.7 -4 -49.3 -0.3 -1.4 -0.7 -4.8 -1 -7.6 -0.4 -2.7 -0.9 -6.7 -1.2 -8.8 l-0.6 -3.7 136.4 0 c142.2 0.1 142.9 0.1 147.8 4.2 3.1 2.7 2.6 8.1 -1.2 14.1 -8 12.5 -39.2 35.1 -72.3 52.3 -14.4 7.5 -21.2 10.3 -26.8 10.9 -2.3 0.2 -42.9 0.7 -90.3 1.1 l-86.1 0.7 -0.7 -13.9z"/>
  <path d="M1525.2 775.1 l-8.4 -0.6 -2.3 -6.7 c-1.3 -3.7 -3.7 -8.7 -5.4 -11.2 -1.7 -2.5 -3.1 -4.7 -3.1 -5 0 -0.2 2.4 -1.6 5.4 -2.9 7.1 -3.3 15.4 -9.4 24.5 -18.1 10.9 -10.6 18.9 -22.6 22.1 -33.4 l1.3 -4.2 143.1 0 c152.4 0.1 150.1 0 155.2 4.9 2.9 2.8 3 5 0.3 10.3 -7.4 14.4 -47.5 43.1 -84.9 60.8 l-11.5 5.4 -31 0.7 c-35 0.9 -192.6 0.8 -205.3 0z"/>
  <path d="M1566.3 671.3 c-5.1 -0.3 -7.3 -0.8 -7.3 -1.7 0 -3.1 -6.5 -13.8 -10.9 -17.9 -5.5 -5.1 -9.7 -7.5 -22.2 -12.3 -20.3 -7.8 -42.2 -11.4 -69.9 -11.4 -32.7 0 -55.3 4.6 -65.8 13.5 l-3.1 2.6 -1.2 -2.3 c-0.7 -1.3 -2 -3.6 -2.9 -5.3 -0.9 -1.6 -3.6 -6.6 -6 -11 -5.1 -9.5 -16.3 -27.7 -19.6 -32.1 -1.3 -1.7 -2.4 -3.4 -2.4 -3.8 0 -0.3 122.7 -0.5 272.8 -0.4 246.8 0.3 273.1 0.5 276.7 1.9 9.7 3.9 8.4 11 -4.5 24 -9.5 9.6 -19.8 17.5 -36.9 28.3 -22.8 14.4 -45.6 25.9 -53.7 27.1 -4.5 0.7 -232.1 1.4 -243.1 0.8z"/>
 </g>
 <g fill="#ffffff">
  <path d="M814 1440 l0 -21 16.5 0 16.5 0 0 4 0 4 -12.5 0 -12.5 0 0 5 0 5 6.5 0 6.5 0 0 4 0 4 -6.5 0 -6.5 0 0 8 0 8 -4 0 -4 0 0 -21z"/>
  <path d="M856 1440 l0 -21 15.5 0 c19.6 0 19.5 -0.1 19.5 13 0 10.6 -1.4 13 -7.7 13 l-3.7 0 4 4.3 c2.1 2.3 5.5 5.9 7.4 8 l3.4 3.7 -5.5 -0.1 -5.4 0 -6.3 -8 c-5.7 -7.1 -6.6 -7.9 -9.7 -7.9 l-3.5 0 0 8 0 8 -4 0 -4 0 0 -21z m27.5 -8 l0 -4.5 -9.7 -0.3 -9.8 -0.3 0 5.1 0 5.1 9.8 -0.3 9.7 -0.3 0 -4.5z"/>
  <path d="M908.2 1459.4 c-2.1 -1.5 -2.2 -2.1 -2.2 -19 0 -22.8 -1.3 -21.4 19.5 -21.4 20.7 0 19.5 -1.3 19.5 21 0 22.3 1.2 21 -19.3 21 -12.2 0 -15.7 -0.3 -17.5 -1.6z m29.8 -19.4 l0 -13 -12.5 0 -12.5 0 0 13 0 13 12.5 0 12.5 0 0 -13z"/>
  <path d="M961 1439.9 l0 -21 3.2 0.3 c2.9 0.3 3.8 1.3 10.2 12 3.9 6.4 7.4 11.9 7.7 12.3 0.4 0.3 3.9 -5 7.9 -11.9 6.6 -11.6 7.4 -12.6 10.1 -12.6 l2.9 0 0 21 0 21 -3.6 0 -3.5 0 0.3 -14.5 c0.2 -8 0.3 -14.5 0.2 -14.5 -0.1 0 -3.2 5.4 -6.9 12 -3.7 6.6 -7.1 12 -7.6 12 -0.4 0 -3.8 -5.4 -7.6 -12 l-6.8 -11.9 -0.3 14.4 -0.3 14.5 -2.9 0 -3 0 0 -21.1z"/>
  <path d="M1045.9 1459.1 c-2.3 -1.9 -2.4 -2.3 -2.7 -21 l-0.3 -19.1 4 0 4.1 0 0 17 0 17 10.5 0 10.5 0 0 -17 0 -17 4.1 0 4.1 0 -0.4 19.1 c-0.4 24.2 0.7 22.9 -18.3 22.9 -11.6 0 -13.6 -0.2 -15.6 -1.9z"/>
  <path d="M1098.3 1459.5 c-2.3 -1.6 -4.1 -7.2 -2.7 -8.5 0.5 -0.4 2.1 -1 3.7 -1.4 2.3 -0.5 2.7 -0.3 2.7 1.4 0 1.9 0.6 2 11.5 2 l11.5 0 0 -4.5 0 -4.5 -11.9 0 c-16 0 -16.6 -0.5 -16.6 -12.5 0 -12.1 0.6 -12.5 17 -12.5 14 0 16.1 0.9 17.2 7.2 0.5 3.5 0.4 3.7 -2.8 4.6 -3.1 0.8 -3.4 0.6 -3.7 -1.5 -0.3 -2.2 -0.6 -2.3 -10.8 -2.3 l-10.4 0 0 4.5 0 4.5 12 0 c15.5 0 16 0.4 16 12.5 0 12.3 -0.3 12.5 -17.3 12.5 -10.2 0 -13.8 -0.3 -15.4 -1.5z"/>
  <path d="M1149.3 1440 l9.1 -21 3.6 0 3.5 0 6.7 15.3 c3.7 8.3 7.8 17.8 9.2 21 l2.6 5.7 -4.3 0 c-4 0 -4.3 -0.2 -6 -4.5 l-1.9 -4.5 -10.3 0 -10.3 0 -1.8 4.5 c-1.6 4.2 -1.9 4.5 -5.5 4.5 l-3.7 0 9.1 -21z m18.7 3.2 c0 -1.3 -5.1 -13.6 -6 -14.5 -0.6 -0.7 -7 12.7 -7 14.7 0 0.3 2.9 0.6 6.5 0.6 3.6 0 6.5 -0.4 6.5 -0.8z"/>
  <path d="M848.1 1109 c-25.4 -2.7 -34.8 -8.1 -42.5 -24.4 -15.4 -32.4 -33.4 -90.2 -39.1 -125.9 -1.9 -11.7 -2.1 -28.7 -0.5 -34.6 0.6 -2.4 3 -7.4 5.3 -11.3 12.8 -21.3 31.9 -35.6 51 -38.1 11.3 -1.4 336 -1.5 347.3 0 20.7 2.7 41.4 19.3 54 43.3 2.9 5.4 2.9 5.7 2.8 22 -0.1 18 -1.7 28.1 -9 56 -7.6 28.8 -24.8 77.5 -32.7 92.3 -5.7 10.8 -14.3 16.2 -31.2 19.5 -6 1.1 -15 1.6 -36.5 1.6 -24.8 0.1 -54.8 -1 -53.8 -1.9 0.2 -0.2 9.3 -1.5 20.3 -3 47.1 -6.3 73.8 -13.5 79.5 -21.5 7.2 -10.1 22.2 -51.2 31.4 -86 6.5 -24.5 10.3 -49.8 9.2 -60.4 -0.5 -4.7 -1.4 -7.3 -4.3 -11.4 -5.1 -7.4 -18.3 -19.6 -24.7 -22.7 l-5.3 -2.6 -44.4 -0.9 c-57.4 -1.2 -200.8 -1.2 -258.2 0 l-44.8 0.9 -5.1 2.8 c-6.5 3.5 -20.6 16.8 -24.7 23.2 -2.2 3.4 -3.3 6.5 -3.7 10.8 -2.3 21.4 13.7 85.6 32.1 129.3 6.4 15 9.4 19.4 15.4 22.4 12.6 6.5 40.9 12.2 92.4 18.8 0.6 0 -1.9 0.4 -5.8 0.8 -11.7 1.2 -65.5 1.9 -74.4 1z"/>
  <path d="M756.5 1086.4 c-39.1 -2.2 -93.2 -9.4 -138.9 -18.5 -25.5 -5.1 -33.3 -7.3 -22.1 -6.4 3.3 0.2 11.4 0.7 18 1 6.6 0.3 28.9 1.8 49.5 3.2 45.3 3.1 85.7 3.7 90.5 1.3 2.6 -1.4 3 -2.1 2.8 -5.6 -0.2 -4.6 -3.9 -13.5 -11.5 -27.1 l-5.1 -9.3 -10.1 -3.9 c-5.6 -2.2 -20.9 -7.4 -34.1 -11.6 -13.2 -4.2 -24.4 -7.8 -25 -8 -2.5 -0.9 9.2 -0.4 24.4 1 33.6 3.2 57.2 7.5 61.5 11.3 5.3 4.8 23 48.4 25.2 61.9 0.8 5.3 -0.1 9 -2.4 9.7 -2.7 0.8 -16 1.3 -22.7 1z"/>
  <path d="M1217.5 1086.1 c-2.7 -0.3 -5.6 -1 -6.2 -1.4 -3 -1.9 -0.3 -15.1 7.4 -35.6 4.8 -12.9 14.5 -33.2 16.9 -35.3 4.3 -3.8 28 -8.1 61.5 -11.3 27.9 -2.5 28.1 -2.3 5.4 5 -23.3 7.4 -39.1 12.9 -45.6 15.7 -4 1.6 -5.2 2.9 -8.7 9.1 -7.2 12.6 -12.5 25 -12.6 29.2 -0.1 3.4 0.3 4.1 2.9 5.5 4.8 2.4 44.3 1.8 90.5 -1.3 21.2 -1.5 43.7 -2.9 50 -3.2 6.3 -0.3 14.2 -0.8 17.5 -1 19.8 -1.6 -27.7 8.5 -70.5 14.9 -45.7 7 -95.4 11.4 -108.5 9.7z"/>
  <path d="M1489.1 979.3 c-0.5 -12.7 -14.4 -128 -18.5 -154.3 -4.1 -25.8 -5.3 -29.9 -9.6 -34 -8.6 -7.9 -91.7 -56 -96.8 -56 -0.7 0 -9.2 8.2 -18.9 18.1 -17.9 18.3 -45.3 44.3 -45.9 43.6 -0.2 -0.2 3.7 -8 8.8 -17.3 10.9 -20.3 23.6 -46.1 24 -48.9 0.3 -2 -0.4 -2 -52.2 -2.6 -74.5 -0.9 -466 -1 -550.3 -0.2 -55.6 0.5 -70.7 0.9 -70.7 1.9 0 1.4 16.7 34.9 27.2 54.4 l7.2 13.5 -4.5 -3.5 c-2.4 -1.9 -17 -16 -32.4 -31.2 -15.3 -15.3 -28.4 -27.8 -28.9 -27.8 -0.5 0 -7.3 3.3 -15 7.4 -28.5 14.8 -74.9 42.5 -81.7 48.6 -3.7 3.4 -4 4 -6.3 16 -4.4 22.3 -13.2 90.1 -19.8 152.5 -1.9 18 -2.4 21.1 -2.9 17 -1.4 -10.5 -2.2 -129.6 -1 -149.6 1.8 -31.3 4 -40.9 12 -51.9 7.6 -10.4 20.4 -18.9 56.8 -37.6 10.6 -5.4 19.3 -10.2 19.3 -10.5 0 -0.3 -10.4 -1.1 -23.1 -1.7 -40 -2.1 -65.2 -5.2 -71.9 -8.7 -5.1 -2.7 -16.2 -12.8 -20.5 -18.6 -5.5 -7.4 -8.4 -15.7 -6.7 -19.3 2 -4.4 26 -12.2 44.7 -14.5 12.9 -1.6 39.2 -1.4 51 0.4 11.5 1.7 16.2 3.1 18.9 5.4 4.4 3.9 8.3 15.9 9.3 29 0.3 4.4 0.9 8.4 1.2 9 0.4 0.5 5.1 1.3 10.6 1.6 l10 0.7 2.4 -5.9 c4.6 -11.1 24.9 -51.9 32.1 -64.3 9.2 -16 24 -38.2 32.3 -48.5 8.2 -10.2 25.3 -26.7 33.7 -32.7 16.4 -11.6 27.8 -15.6 56.5 -19.7 51.1 -7.4 150.2 -13.1 226.5 -13.1 95.3 0 211.5 8.1 251 17.6 33 7.8 65.5 39.9 98 96.4 7.1 12.4 26 50.3 31.6 63.3 l2.9 6.9 10 -0.7 c5.5 -0.3 10.1 -0.8 10.3 -1 0.3 -0.2 0.8 -4.3 1.3 -9 1.5 -14.5 5.1 -25.6 9.6 -29.7 9 -8.1 63 -9.2 90.1 -1.8 13.4 3.7 23.2 8 24.4 10.6 1.7 3.6 -1.3 12 -6.9 19.5 -4.6 6 -15.3 15.7 -20.3 18.4 -6.7 3.5 -32.1 6.6 -71 8.5 -12.4 0.7 -23.1 1.4 -23.8 1.6 -0.7 0.2 7.2 4.7 17.5 10 45.6 23.5 56.4 31.5 63.7 47.5 6.5 14 8.1 42.7 7.1 123.9 -0.4 33.3 -1 63.7 -1.5 67.5 -0.4 3.9 -0.8 5.6 -0.9 3.8z m-782.5 -280.9 l16 -0.7 2.8 -12.1 c6.3 -27.4 15.8 -54.1 27.8 -78.4 4.7 -9.5 8.9 -16.9 10.3 -17.8 1.2 -0.8 8.1 -3.4 15.2 -5.8 l12.9 -4.3 -5.3 10.6 c-10.1 20.3 -19.4 47.8 -28.9 85.6 l-5.2 21 17.1 0.3 c9.5 0.2 19.9 0 23.3 -0.3 l6.1 -0.6 1.2 -10.2 c4.3 -35.6 21.2 -114.3 25.2 -116.8 3.3 -2 41.3 -11 73.4 -17.4 l18 -3.5 -13.5 0.5 c-62.9 2.6 -133.8 9.8 -152.4 15.6 -27.5 8.5 -65.1 60.6 -92.1 127.7 l-3.4 8.5 17.7 -0.7 c9.7 -0.3 24.9 -0.9 33.8 -1.2z"/>
  <path d="M338.3 961.3 c0.3 -1.7 0.9 -5.2 1.2 -7.9 0.6 -4.9 0.6 -4.9 -4.4 -9.9 -2.8 -2.7 -5.1 -5.2 -5.1 -5.6 0 -0.4 2.1 -1 4.8 -1.3 10.5 -1.5 10.1 -1.2 13.6 -8.9 l3.3 -7.2 3.6 7.2 c3.9 7.6 3.6 7.5 14 8.9 2.6 0.3 4.7 0.9 4.7 1.2 0 0.4 -2.5 2.9 -5.5 5.7 l-5.5 5 1 5 c0.5 2.8 1.2 6.2 1.4 7.7 l0.5 2.8 -7 -3.6 -7.1 -3.5 -7.1 3.7 -7 3.7 0.6 -3z"/>
  <path d="M414.6 956.2 l1.4 -7.7 -5.6 -5.6 -5.6 -5.6 7.8 -1.2 c4.3 -0.6 7.8 -1.2 7.9 -1.4 0.1 -0.1 1.6 -3.3 3.4 -7.2 l3.3 -7 3.5 7 c1.9 3.9 3.7 7.2 3.8 7.3 0.2 0.2 3.8 0.9 8 1.5 l7.6 1 -5.7 5.8 -5.6 5.7 1.1 6.4 c1.6 9.5 1.8 9.3 -5.6 5.2 l-6.6 -3.7 -7.2 3.6 -7.2 3.5 1.3 -7.6z"/>
  <path d="M573.1 904.9 c-8.3 -1 -20.8 -4.2 -25.2 -6.4 -1.6 -0.9 -3.2 -2.8 -3.6 -4.3 -1.2 -4 -0.7 -48.1 0.6 -60.2 2.4 -22.3 3.5 -28.7 4.2 -25.5 0.4 1.7 0.7 7.3 0.8 12.6 0.2 19.7 3.7 44.2 7.2 51 1 2.1 2.9 4.4 4.2 5.1 8.6 4.7 138 -1.2 159.9 -7.3 l4.3 -1.2 -13 -6.2 c-24.7 -11.9 -71.2 -31.1 -119 -49.1 -12.1 -4.6 -21.5 -8.3 -21 -8.4 0.6 0 14.7 3.6 31.3 8 95.8 25.3 155.4 44.7 162.6 52.8 4.8 5.5 -3 15.4 -17.8 22.3 -4.6 2.1 -11.2 4.5 -14.7 5.3 -15.3 3.5 -62.2 9.4 -92.4 11.6 -16.5 1.2 -57.8 1.1 -68.4 -0.1z"/>
  <path d="M1348.5 904.9 c-27.8 -2.1 -76.5 -8.2 -90.4 -11.5 -3.5 -0.8 -10.1 -3.2 -14.7 -5.3 -14.7 -6.9 -22.7 -16.8 -17.8 -22.2 5.9 -6.6 43.9 -19.9 108.9 -38.3 26.4 -7.5 83.5 -22.6 85 -22.6 0.5 0.1 -9.1 3.9 -21.5 8.6 -48.3 18.2 -103.9 41.2 -124.5 51.7 l-7 3.5 4.3 1.1 c24.2 6.6 152.6 12 160.5 6.8 5.7 -3.7 9.4 -22.1 10.4 -51.4 0.3 -10.1 0.9 -18.3 1.3 -18.3 1.6 0 4.8 31.8 5.6 55.5 0.8 22.2 0.1 31.8 -2.6 34.5 -2.7 2.7 -13.8 5.9 -26 7.5 -11.6 1.6 -52.6 1.8 -71.5 0.4z"/>
  <path d="M287 858.9 c0 -0.6 0.5 -4.1 1.2 -7.6 l1.2 -6.4 -5.8 -5.8 -5.7 -5.8 7.6 -1 c4.2 -0.6 7.8 -1.3 8 -1.5 0.1 -0.1 1.8 -3.4 3.8 -7.3 l3.5 -6.9 3.5 7.1 c3.9 7.6 4.2 7.8 13 8.9 3.1 0.3 5.7 0.8 5.7 0.9 0 0.2 -2.5 2.7 -5.5 5.7 l-5.6 5.3 1.1 6 c0.6 3.3 1.3 6.8 1.6 7.8 0.5 1.5 -0.7 1.2 -6.7 -1.9 l-7.3 -3.6 -6.8 3.7 c-3.9 2.1 -6.8 3.1 -6.8 2.4z"/>
  <path d="M362.4 857.8 c0.3 -1.3 1 -4.8 1.6 -7.8 l1.1 -5.5 -5.5 -5.2 c-3.1 -2.9 -5.6 -5.4 -5.6 -5.6 0 -0.3 2.4 -0.8 5.3 -1.1 9.4 -1.3 9.5 -1.3 13.4 -8.9 l3.5 -7.1 3.5 6.9 c2 3.9 3.7 7.2 3.8 7.3 0.2 0.2 3.8 0.9 8 1.5 l7.6 1 -5.7 5.8 c-6.2 6.3 -6 5.2 -3.7 17.8 l0.6 3.4 -7.1 -3.7 -7 -3.7 -7.1 3.6 c-6.9 3.4 -7.1 3.5 -6.7 1.3z"/>
  <path d="M438 858.9 c0 -0.7 0.5 -4.1 1.1 -7.7 l1.1 -6.4 -5.6 -5.7 -5.7 -5.8 7.6 -1 c4.2 -0.6 7.8 -1.3 8 -1.5 0.1 -0.1 1.9 -3.4 3.8 -7.3 l3.5 -7 3.4 7.2 c2.9 6.4 3.7 7.3 6.7 7.9 l3.3 0.7 -0.7 5.6 c-0.4 3.1 -0.8 8.7 -1 12.4 -0.2 3.8 -0.6 7.1 -0.8 7.4 -0.3 0.2 -2.9 -0.8 -5.8 -2.2 l-5.3 -2.7 -6.8 3.7 c-4.1 2.2 -6.8 3.1 -6.8 2.4z"/>
  <path d="M236 754.9 c0 -0.7 0.5 -4.1 1.1 -7.7 l1.1 -6.4 -5.7 -5.8 -5.7 -5.7 5.9 -0.7 c9.7 -1.2 9.7 -1.2 13.4 -8.7 l3.3 -7 3.4 6.8 c1.9 3.7 3.6 7 3.7 7.1 0.2 0.2 3.8 0.9 8 1.5 l7.6 1 -5.6 5.7 -5.6 5.7 1.4 7.6 c0.8 4.3 1.3 7.7 1.1 7.7 -0.2 0 -3.3 -1.6 -7 -3.7 l-6.6 -3.6 -6.9 3.7 c-4.2 2.3 -6.9 3.2 -6.9 2.5z"/>
  <path d="M311 755.8 c0 -0.2 0.6 -3.6 1.4 -7.7 l1.4 -7.4 -5.4 -5 c-3 -2.7 -5.4 -5.3 -5.4 -5.7 0 -0.4 2.8 -1.1 6.3 -1.5 3.4 -0.4 6.9 -1.1 7.7 -1.5 0.9 -0.5 2.9 -3.6 4.5 -6.9 1.6 -3.4 3.2 -6.1 3.5 -6.1 0.3 0 1.9 2.8 3.6 6.1 3.1 6.7 4.1 7.3 12.7 8.4 3.1 0.4 5.7 1 5.7 1.4 0 0.4 -2.3 2.9 -5.1 5.6 -4.9 4.8 -5.1 5.1 -4.5 9.5 0.3 2.5 0.8 6 1.2 7.8 l0.7 3.4 -7.2 -3.6 -7.1 -3.6 -7 3.5 c-3.8 1.9 -7 3.4 -7 3.3z"/>
  <path d="M387 754.2 c0 -1 0.5 -4.4 1.2 -7.6 l1.1 -5.7 -5.7 -5.8 -5.8 -5.8 5.9 -0.7 c9.7 -1.2 9.7 -1.2 13.4 -8.7 l3.3 -7 3.4 6.8 c1.9 3.7 3.6 7 3.7 7.1 0.2 0.2 3.8 0.9 8 1.5 l7.6 1 -5.6 5.7 -5.7 5.7 1.1 5.8 c1.9 10.2 2 10.1 -5.6 5.9 l-6.6 -3.8 -6.9 3.8 c-6 3.3 -6.8 3.5 -6.8 1.8z"/>
  <path d="M462.3 753.8 c0.3 -1.3 0.9 -4.7 1.3 -7.6 l0.7 -5.4 -5.4 -5.5 c-5.1 -5.3 -5.2 -5.5 -1.1 -2.2 10.8 8.6 17.1 13 22.4 15.6 3.2 1.5 5.8 3.1 5.8 3.6 0 1.2 -1.9 0.8 -6 -1.3 l-4 -2 -7.1 3.6 c-7 3.5 -7.1 3.5 -6.6 1.2z"/>
  <path d="M185 650.3 c0 -1.1 0.5 -4.6 1.1 -7.8 l1.1 -5.8 -5.7 -5.7 -5.7 -5.7 5.9 -0.7 c9.7 -1.2 9.7 -1.2 13.4 -8.7 l3.3 -7 3.4 6.8 c1.9 3.7 3.6 7 3.7 7.1 0.2 0.2 3.8 0.9 8 1.5 l7.6 1 -5.6 5.7 -5.7 5.7 1.1 5.8 c1.9 10.3 2 10.1 -5.8 5.9 l-6.8 -3.7 -6.7 3.8 c-5.9 3.3 -6.6 3.5 -6.6 1.8z"/>
  <path d="M260.3 649.8 c0.4 -1.3 0.9 -4.8 1.3 -7.8 l0.6 -5.5 -5.1 -5 c-2.8 -2.7 -5.1 -5.2 -5.1 -5.6 0 -0.4 2.8 -1 6.3 -1.4 3.4 -0.4 6.9 -1.1 7.7 -1.5 0.9 -0.5 2.9 -3.6 4.5 -6.9 1.6 -3.4 3.2 -6.1 3.5 -6.1 0.3 0 1.9 2.7 3.5 6.1 1.6 3.3 3.6 6.4 4.5 6.9 0.8 0.4 4.3 1.1 7.8 1.5 3.4 0.4 6.2 1 6.2 1.4 0 0.4 -2.4 3.1 -5.4 6 -5.1 5 -5.3 5.5 -4.6 8.9 0.4 2.1 1.1 5.4 1.4 7.5 l0.7 3.8 -7 -3.6 -7.1 -3.5 -7.1 3.6 c-7 3.5 -7.1 3.5 -6.6 1.2z"/>
  <path d="M336 650.3 c0 -1.1 0.5 -4.6 1.1 -7.8 l1.1 -5.8 -5.7 -5.7 -5.6 -5.7 7.6 -1 c4.2 -0.6 7.8 -1.3 8 -1.5 0.1 -0.1 1.8 -3.4 3.7 -7.1 l3.4 -6.8 3.3 7 c3.7 7.5 3.8 7.6 13.5 8.7 l5.7 0.7 -5.7 5.8 -5.7 5.8 1.1 5.7 c2.1 10.1 2.1 10.1 -5.7 5.8 l-6.8 -3.7 -6.7 3.8 c-5.9 3.3 -6.6 3.5 -6.6 1.8z"/>
  <path d="M411.4 648.8 c0.4 -1.8 0.9 -5.3 1.2 -7.8 0.6 -4.4 0.4 -4.7 -4.5 -9.5 -2.8 -2.7 -5.1 -5.2 -5.1 -5.6 0 -0.4 2.8 -1 6.3 -1.4 3.4 -0.4 6.9 -1.1 7.7 -1.5 0.9 -0.5 2.9 -3.6 4.5 -6.9 1.6 -3.4 3.2 -6.1 3.5 -6.1 0.3 0 1.9 2.7 3.5 6.1 1.6 3.3 3.6 6.4 4.5 6.9 0.8 0.4 4.3 1.1 7.8 1.5 3.4 0.4 6.2 1 6.2 1.4 0 0.4 -2.4 3 -5.4 6 l-5.3 5.2 0.8 4.7 c0.5 2.6 1.1 5.9 1.3 7.4 l0.5 2.8 -6.9 -3.5 -7 -3.5 -7.1 3.6 -7.2 3.6 0.7 -3.4z"/>
  <path d="M581.5 632.4 c-2.7 -0.7 -9.7 -2 -15.4 -2.8 -5.9 -0.9 -11 -2.1 -11.8 -2.9 -1.3 -1.3 -0.6 -1.5 5.4 -2.2 3.7 -0.4 7.5 -1.1 8.3 -1.5 0.9 -0.5 2.9 -3.6 4.5 -6.9 1.6 -3.4 3.2 -6.1 3.5 -6.1 0.3 0 1.9 2.7 3.5 6.1 1.6 3.3 3.6 6.4 4.5 6.9 0.8 0.4 4.3 1.1 7.8 1.5 3.4 0.4 6.2 1 6.2 1.4 0 1.6 -7.7 8.1 -9.5 8 -1.1 0 -4.2 -0.7 -7 -1.5z"/>
  <path d="M481.7 629.2 l-3.9 -3.9 5.9 -0.7 c9.7 -1.2 9.7 -1.2 13.4 -8.7 l3.3 -7 3.4 6.8 c1.9 3.7 3.6 6.9 3.7 7.1 0.2 0.2 3.8 0.9 8 1.6 9.3 1.4 8.7 3 -1.5 4.1 -6.5 0.6 -22.7 3.2 -26.5 4.1 -1.4 0.3 -3.2 -0.7 -5.8 -3.4z"/>
 </g>
</svg>